<svg width="386" height="39" viewBox="0 0 386 39" fill="none" xmlns="http://www.w3.org/2000/svg">
<rect y="3" width="58" height="33" fill="#7AC80E"/>
<path d="M44 36H58.6364H65V3H61.8182H56.7273L44 36Z" fill="white"/>
<path d="M8.17 33V8.5H27.875V14.275H14.89V17.985H26.65V23.34H14.89V27.225H28.05V33H8.17ZM39.4947 33.175L29.5547 8.5H37.1497L42.7147 24.005L48.2797 8.5H55.7347L45.7947 33.175H39.4947ZM58.1065 33V8.5H77.8115V14.275H64.8265V17.985H76.5865V23.34H64.8265V27.225H77.9865V33H58.1065ZM81.4513 33V8.5H93.0363C96.7812 8.5 99.3713 9.48 101.016 11.16C102.451 12.56 103.186 14.45 103.186 16.865V16.935C103.186 20.68 101.191 23.165 98.1463 24.46L103.991 33H96.1513L91.2163 25.58H91.1463H88.2413V33H81.4513ZM88.2413 20.26H92.7213C95.0313 20.26 96.3613 19.14 96.3613 17.355V17.285C96.3613 15.36 94.9613 14.38 92.6863 14.38H88.2413V20.26ZM119.103 33.49C111.473 33.49 105.768 28.24 105.768 20.82V20.75C105.768 13.61 111.368 8.01 118.963 8.01C123.268 8.01 126.312 9.34 128.903 11.58L124.913 16.375C123.163 14.905 121.413 14.065 118.998 14.065C115.463 14.065 112.733 17.04 112.733 20.785V20.855C112.733 24.81 115.498 27.645 119.383 27.645C121.028 27.645 122.288 27.295 123.303 26.63V23.655H118.473V18.685H129.743V29.71C127.153 31.845 123.548 33.49 119.103 33.49ZM133.507 33V8.5H140.297V27.05H152.162V33H133.507ZM165.993 33.49C158.433 33.49 152.833 27.855 152.833 20.82V20.75C152.833 13.715 158.503 8.01 166.063 8.01C173.623 8.01 179.223 13.645 179.223 20.68V20.75C179.223 27.785 173.553 33.49 165.993 33.49ZM166.063 27.365C169.808 27.365 172.293 24.355 172.293 20.82V20.75C172.293 17.215 169.738 14.135 165.993 14.135C162.283 14.135 159.798 17.145 159.798 20.68V20.75C159.798 24.285 162.353 27.365 166.063 27.365ZM187.903 33.175L179.713 8.5H186.888L191.158 22.675L195.883 8.43H201.728L206.453 22.675L210.723 8.5H217.758L209.568 33.175H203.653L198.718 19.07L193.818 33.175H187.903Z" fill="#023C1A"/>
<path d="M241.962 33.49C234.962 33.49 229.327 28.135 229.327 20.82V20.75C229.327 13.61 234.822 8.01 242.242 8.01C247.247 8.01 250.467 10.11 252.637 13.12L247.527 17.075C246.127 15.325 244.517 14.205 242.172 14.205C238.742 14.205 236.327 17.11 236.327 20.68V20.75C236.327 24.425 238.742 27.295 242.172 27.295C244.727 27.295 246.232 26.105 247.702 24.32L252.812 27.96C250.502 31.145 247.387 33.49 241.962 33.49ZM253.568 33L263.998 8.325H270.543L280.973 33H273.693L271.908 28.625H262.458L260.708 33H253.568ZM264.453 23.34H269.948L267.218 16.375L264.453 23.34ZM283.351 33V8.5H293.851C300.046 8.5 304.036 11.685 304.036 17.11V17.18C304.036 22.955 299.591 26 293.501 26H290.141V33H283.351ZM290.141 20.68H293.361C295.776 20.68 297.246 19.42 297.246 17.495V17.425C297.246 15.325 295.776 14.205 293.326 14.205H290.141V20.68ZM307.04 33V8.5H313.865V33H307.04ZM324.336 33V14.45H316.986V8.5H338.476V14.45H331.126V33H324.336ZM336.352 33L346.782 8.325H353.327L363.757 33H356.477L354.692 28.625H345.242L343.492 33H336.352ZM347.237 23.34H352.732L350.002 16.375L347.237 23.34ZM366.134 33V8.5H372.924V27.05H384.789V33H366.134Z" fill="#00AE4D"/>
</svg>
